<svg xmlns="http://www.w3.org/2000/svg" width="26.924" height="25.372" viewBox="0 0 26.924 25.372">
  <g id="alerta" transform="translate(6 -14.759)">
    <g id="Grupo_85" transform="translate(-6 14.759)">
      <path id="Caminho_151" d="M26.365,34.173,16.854,16.69a3.944,3.944,0,0,0-6.783,0L.56,34.173a3.942,3.942,0,0,0,3.391,5.958H22.973A3.943,3.943,0,0,0,26.365,34.173Zm-12.9,2.8A1.578,1.578,0,1,1,15.04,35.4,1.58,1.58,0,0,1,13.462,36.976Zm1.578-6.31a1.578,1.578,0,1,1-3.155,0V22.777a1.578,1.578,0,1,1,3.155,0Z" transform="translate(0 -14.759)" fill="#f9f9f9"/>
    </g>
  </g>
</svg>
