<svg id="Check" xmlns="http://www.w3.org/2000/svg" width="21" height="21" viewBox="0 0 21 21">
  <g id="Caminho_1395" fill="#fff">
    <path d="M 10.5 20 C 5.261680126190186 20 1 15.73832035064697 1 10.5 C 1 5.261680126190186 5.261680126190186 1 10.5 1 C 15.73832035064697 1 20 5.261680126190186 20 10.5 C 20 15.73832035064697 15.73832035064697 20 10.5 20 Z" stroke="none"/>
    <path d="M 10.5 2 C 5.813079833984375 2 2 5.813079833984375 2 10.5 C 2 15.18692016601562 5.813079833984375 19 10.5 19 C 15.18692016601562 19 19 15.18692016601562 19 10.5 C 19 5.813079833984375 15.18692016601562 2 10.5 2 M 10.5 0 C 16.29899024963379 0 21 4.701009750366211 21 10.5 C 21 16.29899024963379 16.29899024963379 21 10.5 21 C 4.701009750366211 21 0 16.29899024963379 0 10.5 C 0 4.701009750366211 4.701009750366211 0 10.5 0 Z" stroke="none" fill="#fff"/>
  </g>
  <path id="check-2" d="M3.567,7.5a.475.475,0,0,1-.673,0L.209,4.814a.713.713,0,0,1,0-1.009l.336-.336a.713.713,0,0,1,1.009,0L3.231,5.146,7.761.615a.713.713,0,0,1,1.009,0l.336.336a.713.713,0,0,1,0,1.009Zm0,0" transform="translate(5.78 6.516)" fill="#48bb78"/>
</svg>
