<?xml version="1.0" encoding="UTF-8" standalone="no"?> <svg width="64" height="64" viewBox="0 0 64 64" fill="none" xmlns="http://www.w3.org/2000/svg">
<path d="M37.5701 7V56.57H58.2901L60.0001 53.57V9.57L57.2901 7.14L37.5701 7Z"/>
<path d="M57 6.25001H39.25V4.00001C39.2547 3.80927 39.2157 3.61998 39.136 3.44665C39.0563 3.27331 38.9379 3.12053 38.79 3.00001C38.6517 2.88788 38.4905 2.8074 38.3177 2.76421C38.1449 2.72102 37.9648 2.71617 37.79 2.75001L11.14 8.28001C10.1853 8.48295 9.32863 9.00611 8.71206 9.76273C8.09548 10.5194 7.75603 11.464 7.75 12.44V51.56C7.75603 52.536 8.09548 53.4807 8.71206 54.2373C9.32863 54.9939 10.1853 55.5171 11.14 55.72L37.75 61.22C37.9312 61.257 38.1184 61.2533 38.298 61.2092C38.4776 61.1651 38.6452 61.0817 38.7887 60.965C38.9322 60.8483 39.048 60.7012 39.1278 60.5343C39.2076 60.3675 39.2493 60.185 39.25 60V57.75H57C58.1264 57.7474 59.2058 57.2988 60.0023 56.5023C60.7987 55.7058 61.2474 54.6264 61.25 53.5V10.5C61.2474 9.37365 60.7987 8.29418 60.0023 7.49772C59.2058 6.70126 58.1264 6.25265 57 6.25001V6.25001ZM36.75 58.46L11.65 53.27C11.2564 53.1878 10.9029 52.9733 10.6481 52.6621C10.3934 52.351 10.2529 51.9621 10.25 51.56V12.44C10.2529 12.0379 10.3934 11.649 10.6481 11.3379C10.9029 11.0268 11.2564 10.8122 11.65 10.73L36.75 5.54001V58.46ZM58.75 53.46C58.754 53.6928 58.7117 53.9241 58.6257 54.1404C58.5396 54.3568 58.4115 54.5539 58.2487 54.7204C58.086 54.8869 57.8918 55.0194 57.6774 55.1103C57.4631 55.2012 57.2328 55.2487 57 55.25H39.25V8.75001H57C57.4633 8.75263 57.9069 8.93785 58.2345 9.26547C58.5622 9.59309 58.7474 10.0367 58.75 10.5V53.46Z" fill="#F5565C"/>
<path d="M30 36.25C30.8406 36.25 31.6623 36.0007 32.3612 35.5337C33.0601 35.0668 33.6048 34.403 33.9265 33.6264C34.2482 32.8498 34.3323 31.9953 34.1683 31.1709C34.0044 30.3464 33.5996 29.5892 33.0052 28.9948C32.4108 28.4004 31.6536 27.9957 30.8291 27.8317C30.0047 27.6677 29.1502 27.7518 28.3736 28.0735C27.597 28.3952 26.9332 28.9399 26.4663 29.6388C25.9993 30.3377 25.75 31.1594 25.75 32C25.7526 33.1264 26.2013 34.2058 26.9977 35.0023C27.7942 35.7987 28.8736 36.2474 30 36.25ZM30 30.25C30.3461 30.25 30.6845 30.3526 30.9722 30.5449C31.26 30.7372 31.4843 31.0105 31.6168 31.3303C31.7492 31.6501 31.7839 32.0019 31.7164 32.3414C31.6488 32.6809 31.4822 32.9927 31.2374 33.2374C30.9927 33.4822 30.6809 33.6489 30.3414 33.7164C30.0019 33.7839 29.6501 33.7492 29.3303 33.6168C29.0105 33.4843 28.7372 33.26 28.5449 32.9722C28.3526 32.6845 28.25 32.3461 28.25 32C28.2526 31.5367 28.4378 31.0931 28.7655 30.7655C29.0931 30.4378 29.5367 30.2526 30 30.25Z" fill="#F5565C"/>
</svg>
