<svg xmlns="http://www.w3.org/2000/svg" width="8.412" height="8.885" viewBox="0 0 8.412 8.885">
  <path id="obrigatorio" d="M5.388,8.885H4.3a.641.641,0,0,1-.64-.64V6.5l-1.518.876a.648.648,0,0,1-.875-.235L.725,6.193a.632.632,0,0,1-.064-.487.642.642,0,0,1,.3-.388l1.516-.876L.961,3.567a.644.644,0,0,1-.3-.388.632.632,0,0,1,.064-.488l.542-.94a.648.648,0,0,1,.873-.237l1.52.877V.64A.641.641,0,0,1,4.3,0H5.389a.641.641,0,0,1,.64.64V2.39l1.518-.876a.648.648,0,0,1,.875.235l.544.943a.632.632,0,0,1,.064.487.642.642,0,0,1-.3.388l-1.516.876,1.515.875a.644.644,0,0,1,.3.388.631.631,0,0,1-.064.488l-.542.941a.647.647,0,0,1-.873.237L6.028,6.5v1.75a.641.641,0,0,1-.64.64Z" transform="translate(-0.639 0)" fill="#f5565c"/>
</svg>
