<svg id="lixeira" xmlns="http://www.w3.org/2000/svg" width="13.206" height="20.238" viewBox="0 0 13.206 20.238">
  <g id="Grupo_301" transform="translate(0)">
    <g id="Grupo_300">
      <path id="Caminho_851" d="M63.751,48.228H52.645a1.052,1.052,0,0,0-1.05,1.05v.839H64.8v-.839A1.052,1.052,0,0,0,63.751,48.228Z" transform="translate(-51.595 -44.942)" fill="#f5565c"/>
      <path id="Caminho_852" d="M56.8,101.442a2.483,2.483,0,0,0,2.46,2.264h5.734a2.483,2.483,0,0,0,2.46-2.264l.989-11.871H55.806Z" transform="translate(-55.519 -83.468)" fill="#f5565c"/>
      <path id="Caminho_853" d="M108.047,1.779A.852.852,0,0,1,108.9.928h2.082a.852.852,0,0,1,.851.851v.58h.928v-.58A1.781,1.781,0,0,0,110.98,0H108.9a1.781,1.781,0,0,0-1.779,1.779v.58h.928Z" transform="translate(-103.336 0)" fill="#f5565c"/>
    </g>
  </g>
</svg>
