<svg xmlns="http://www.w3.org/2000/svg" width="37.33" height="34.724" viewBox="0 0 37.33 34.724">
  <g id="Workmize_Logotipo_Símbolo_Primária_Em_Cores" data-name="Workmize Logotipo Símbolo Primária Em Cores" transform="translate(-8.04 -8.3)">
    <path id="Caminho_844" data-name="Caminho 844" d="M59.062,43.032c-.252.252-.5.522-.774.775-.2.216-.414.414-.612.63L55.57,46.544c-.45.45-.918.9-1.368,1.369-1.134,1.135-2.286,2.27-3.42,3.4l-.792.793-1.854,1.855c-1.332,1.333-2.682,2.666-4,4l-6.012-6.016c.72-.7,1.422-1.423,2.142-2.143l6.7-6.7c1.872-1.873-1.026-4.791-2.916-2.918l-1.206,1.225q-3.807,3.837-7.632,7.637-3-3.026-6.012-6.016l2.466-2.468c1.026-1.009,2.034-2.035,3.06-3.062,3.15-3.116,6.282-6.268,9.414-9.4l2.16,2.161c.792.811,1.6,1.6,2.394,2.4L50.8,34.764,55.534,39.5c.7.72,1.422,1.423,2.124,2.143l1.314,1.315A.393.393,0,0,0,59.062,43.032Z" transform="translate(-17.314 -16.201)" fill="#171923"/>
    <g id="Grupo_282" data-name="Grupo 282" transform="translate(8.04 8.3)">
      <g id="Grupo_281" data-name="Grupo 281" transform="translate(0 0)">
        <g id="Grupo_280" data-name="Grupo 280">
          <path id="Caminho_845" data-name="Caminho 845" d="M45.167,27.327l-1.226,1.226-.325.325c-.343.343-.685.667-1.01,1.01-.739.757-1.479,1.479-2.218,2.218-.541.541-1.082,1.082-1.605,1.623-.162.162-.343.325-.487.487L29.711,42.8a.647.647,0,0,1-.956-.018.634.634,0,0,1-.018-.956l2.11-2.11.559-.559c.433-.433.866-.884,1.317-1.317.271-.271.541-.523.794-.794,1.136-1.154,2.29-2.29,3.427-3.427.451-.469.92-.92,1.371-1.371l4.473-4.473c.018-.036.054-.054.072-.072l.9-.884-.974-.974c-.739-.739-1.479-1.461-2.2-2.2-.794-.776-1.569-1.569-2.363-2.345l-.812-.812-3.9-3.9-.794-.794c-.433-.433-.866-.884-1.317-1.317-.18-.18-.379-.361-.559-.541l-1.28-1.28-1.749-1.749-.487-.487-.09-.09c-.126-.126-.271-.252-.4-.4l-.4.4-.09.09-.487.487c-1.966,1.93-3.9,3.878-5.843,5.807l-1.785,1.785-3.264,3.264-1.082,1.082L10.9,25.848l-.487.487-.739.739,7.953,7.953c.415-.415.812-.812,1.226-1.208l5.807-5.807.216-.216,2.669-2.669a.689.689,0,0,1,.974.974c-1.587,1.587-3.156,3.156-4.725,4.743-1.335,1.317-2.651,2.651-3.968,3.968l-.126.126c-.361.343-.739.721-1.082,1.082.144.126.271.271.415.415l2.327,2.327.108.126,2.976,2.958a.665.665,0,0,1,.18.649.683.683,0,0,1-1.136.325l-2.471-2.471h0l-.108-.108Q14.9,34.235,8.88,28.211h0l-.649-.649a.623.623,0,0,1-.18-.379h0a.651.651,0,0,1,.162-.559c0-.018.018-.018.018-.036l.126-.126,6.168-6.15c1.533-1.515,3.03-3.03,4.563-4.563l1.785-1.785h0L26.338,8.5a.73.73,0,0,1,.487-.2.775.775,0,0,1,.5.2l1.948,1.966.018.018,1.551,1.551L32.7,13.891l.794.794,5.194,5.176,4.058,4.058,2.417,2.435A.686.686,0,0,1,45.167,27.327Z" transform="translate(-8.04 -8.3)" fill="#805ad5"/>
        </g>
      </g>
    </g>
  </g>
</svg>
